# xmcd CD database file
#
# Track frame offsets:
#	187
#	21825
#	36600
#	54925
#	69240
#	85475
#	103305
#	118225
#	138837
#	150962
#	166342
#
# Disc length: 2564 seconds
#
# Revision: 0
# Processed by: cddbd v1.5.1PL0 Copyright (c) Steve Scherf et al.
# Submitted via: CDex 1.51
#
DISCID=8f0a020b
DTITLE=大島ミチル - レジェンド・オブ・クリスタニア〜はじまりの冒険者たち〜　オリジナル・サウンドトラック Vol.II
DYEAR=1994
DGENRE=Anime
TTITLE0=時の箱舟〜Affectionatery
TTITLE1=On The Rove
TTITLE2=大蛇の部族〜リオ
TTITLE3=牧歌〜Pastoral
TTITLE4=ダークエルフ
TTITLE5=神王の伝説
TTITLE6=Shaman〜ライファン
TTITLE7=レードン〜Eternal Quest〜
TTITLE8=Missing Your Soul
TTITLE9=囚われの地
TTITLE10=Lady Moon
EXTD=YEAR: 1994
EXTT0=
EXTT1=
EXTT2=
EXTT3=
EXTT4=
EXTT5=
EXTT6=
EXTT7=
EXTT8=
EXTT9=
EXTT10=
PLAYORDER=
